<svg display="none" xmlns="http://www.w3.org/2000/svg">
<symbol width="27" height="29" viewBox="0 0 27 29" id="globe-icon">
<path d="M19.6743 7.55704L19.7004 7.76178L19.4 7.82529L19.36 8.26141H19.7198L20.1984 8.21434L20.4455 7.91433L20.1829 7.80998L20.0391 7.64098L19.8231 7.28369L19.7198 6.77838L19.3139 6.86288L19.2001 7.04096V7.24172L19.3955 7.3784L19.6743 7.55704Z" fill="white"/>
<path d="M19.3284 7.72489L19.35 7.45154L19.1118 7.34662L18.7787 7.42545L18.5316 7.83038V8.09295H18.8197L19.3284 7.72489Z" fill="white"/>
<path d="M12.4708 8.88583L12.3975 9.07865H12.0427V9.26581H12.1271C12.1271 9.26581 12.1321 9.3055 12.1393 9.35768L12.357 9.33896L12.493 9.25276L12.5286 9.07865L12.7046 9.06334L12.774 8.91702L12.6124 8.883L12.4708 8.88583Z" fill="white"/>
<path d="M11.5563 9.2255L11.5424 9.40868L11.7995 9.38656L11.8262 9.20281L11.6718 9.07861L11.5563 9.2255Z" fill="white"/>
<path d="M26.9967 15.0692C26.9928 14.6659 26.9728 14.2656 26.9356 13.8714C26.8107 12.5574 26.503 11.2978 26.0422 10.117C26.0077 10.0291 25.9761 9.9401 25.9394 9.85333C25.3253 8.37143 24.463 7.02224 23.4074 5.85793C23.338 5.78194 23.2675 5.70708 23.197 5.63335C22.9976 5.42181 22.7927 5.21538 22.5806 5.01745C20.1807 2.78582 16.9935 1.42358 13.4997 1.42358C9.97654 1.42358 6.76652 2.8102 4.35998 5.07587C3.79916 5.60386 3.28387 6.18006 2.81633 6.79709C1.05279 9.12684 0 12.0453 0 15.2115C0 22.815 6.05633 29 13.5003 29C18.7365 29 23.2825 25.9375 25.5202 21.4754C25.9988 20.5215 26.3714 19.5047 26.6224 18.439C26.6863 18.1685 26.7412 17.8969 26.789 17.6218C26.925 16.8386 26.9994 16.0333 26.9994 15.2115C27 15.1639 26.9972 15.1168 26.9967 15.0692ZM24.4558 9.55842L24.534 9.46881C24.6368 9.67241 24.7328 9.87941 24.8245 10.0892L24.6967 10.0841L24.4558 10.1182V9.55842ZM22.5051 7.15268L22.5073 6.53678C22.7194 6.76647 22.9238 7.00296 23.1192 7.24796L22.876 7.61772L22.0259 7.60978L21.9726 7.42887L22.5051 7.15268ZM6.22013 5.62201V5.59876H6.49055L6.51387 5.50405H6.95642V5.70141L6.82927 5.87495H6.21958L6.22013 5.62201ZM6.65213 6.23734C6.65213 6.23734 6.92255 6.19027 6.94587 6.19027C6.96919 6.19027 6.94587 6.46589 6.94587 6.46589L6.33619 6.50502L6.22013 6.36324L6.65213 6.23734ZM25.3159 11.7107H24.328L23.7261 11.253L23.0926 11.3159V11.7107H22.8921L22.6756 11.553L21.5783 11.2689V10.5429L20.1879 10.6535L19.7571 10.89H19.2051L18.9347 10.8622L18.2645 11.2422V11.9574L16.8946 12.9668L17.0085 13.3979H17.2861L17.2134 13.8085L17.0179 13.8816L17.0074 14.9546L18.1912 16.3316H18.7065L18.7376 16.2477H19.6638L19.9309 15.9953H20.4561L20.7443 16.2902L21.5273 16.373L21.4234 17.4364L22.2924 19.0033L21.8349 19.8965L21.866 20.3173L22.2263 20.6843V21.696L22.6994 22.3459V23.1864H23.1081C20.8337 26.0385 17.3722 27.8652 13.4992 27.8652C6.66824 27.8658 1.11054 22.1889 1.11054 15.2115C1.11054 13.4551 1.46369 11.781 2.09948 10.2594V9.86467L2.54258 9.31512C2.69639 9.01852 2.86131 8.72928 3.03733 8.44742L3.05732 8.67711L2.54314 9.31512C2.38377 9.62251 2.23496 9.93669 2.10003 10.2594V10.9796L2.61477 11.2326V12.2335L3.1084 13.0939L3.50986 13.1568L3.5615 12.8619L3.08786 12.1156L2.99513 11.3902H3.27276L3.38992 12.1366L4.07457 13.1568L3.89799 13.4863L4.33333 14.1663L5.41444 14.4397V14.261L5.84699 14.324L5.8059 14.6393L6.14573 14.7028L6.67046 14.8491L7.41174 15.7117L8.35848 15.7849L8.45121 16.5738L7.80321 17.0365L7.77267 17.7409L7.67994 18.1719L8.61723 19.3702L8.68886 19.7808C8.68886 19.7808 9.02869 19.875 9.07033 19.875C9.11142 19.875 9.83217 20.4325 9.83217 20.4325V22.5983L10.0893 22.672L9.91434 23.6713L10.3469 24.2606L10.2669 25.2508L10.8383 26.2767L11.5718 26.9312L12.3092 26.9448L12.3814 26.7026L11.8395 26.2364L11.8706 26.005L11.9677 25.7215L11.9883 25.4322L11.6218 25.4209L11.4369 25.1838L11.7412 24.885L11.7823 24.6593L11.4424 24.56L11.4624 24.3502L11.9466 24.2753L12.6829 23.914L12.93 23.4513L13.7024 22.4418L13.5269 21.6524L13.764 21.2321L14.4742 21.2542L14.9523 20.8675L15.1067 19.3442L15.637 18.6562L15.7297 18.2144L15.246 18.0562L14.9268 17.5214L13.8357 17.5101L12.9706 17.1732L12.9295 16.5431L12.6407 16.0276L11.8583 16.0157L11.4064 15.2909L11.0049 15.0907L10.9844 15.3119L10.2536 15.3561L9.98597 14.9756L9.22359 14.8174L8.59558 15.5586L7.6072 15.3873L7.53557 14.2497L6.81427 14.1238L7.10357 13.5657L7.02083 13.2453L6.07299 13.8924L5.47663 13.8181L5.26396 13.3423L5.39389 12.8517L5.72261 12.233L6.47944 11.8417L7.94092 11.8411L7.93703 12.2965L8.46231 12.546L8.42067 11.7679L8.79936 11.3789L9.56341 10.8662L9.61561 10.5055L10.3774 9.69567L11.1876 9.23743L11.1159 9.17731L11.6646 8.64989L11.8656 8.70433L11.9577 8.82229L12.166 8.58637L12.217 8.56312L11.9888 8.53022L11.7573 8.45139V8.22454L11.88 8.12189H12.1504L12.2742 8.17747L12.3814 8.39865L12.5125 8.37823V8.35895L12.5502 8.372L12.93 8.31245L12.9839 8.12303L13.2004 8.17861V8.38391L12.9994 8.52512H13L13.0294 8.75027L13.7174 8.96691C13.7174 8.96691 13.7179 8.96975 13.7191 8.97542L13.8773 8.96181L13.8879 8.65726L13.3426 8.40375L13.3115 8.25744L13.764 8.09978L13.784 7.65742L13.3109 7.36308L13.2798 6.61731L12.6313 6.94284H12.3947L12.4569 6.37515L11.574 6.16248L11.2087 6.44434V7.3041L10.5518 7.51677L10.2886 8.07709L10.0032 8.12416V7.40732L9.38573 7.31998L9.077 7.11468L8.95262 6.65021L10.057 5.99007L10.5973 5.8222L10.6517 6.1931L10.9527 6.17722L10.976 5.99064L11.2909 5.9447L11.2964 5.87948L11.1609 5.8222L11.1298 5.62484L11.5169 5.59138L11.7506 5.34298L11.7634 5.32484L11.7662 5.32597L11.8372 5.25111L12.6507 5.14619L13.0105 5.45811L12.0671 5.97136L13.2676 6.26059L13.4231 5.85056H13.9478L14.1333 5.49327L13.7624 5.39856V4.94656L12.5991 4.42027L11.7962 4.51498L11.3431 4.75714L11.3741 5.34582L10.9005 5.27209L10.8278 4.94656L11.2814 4.52576L10.458 4.48379L10.2214 4.55695L10.1187 4.84051L10.4274 4.89382L10.3658 5.20914L9.84105 5.2409L9.75887 5.45074L8.99759 5.47229C8.99759 5.47229 8.97649 5.03106 8.94595 5.03106C8.91541 5.03106 9.54287 5.02029 9.54287 5.02029L9.99652 4.56772L9.74887 4.44125L9.4196 4.76792L8.87321 4.73616L8.54394 4.27339H7.84374L7.11301 4.83087H7.78266L7.84374 5.03106L7.66994 5.1961L8.41123 5.21708L8.5245 5.49044L7.68993 5.45868L7.6494 5.24827L7.12467 5.13258L6.84648 4.97492L6.2218 4.98002C8.26686 3.45843 10.7817 2.55783 13.4997 2.55783C16.6326 2.55783 19.495 3.7539 21.6789 5.71899L21.5317 5.9878L20.9603 6.21636L20.7193 6.48347L20.7749 6.79482L21.0697 6.83679L21.2474 7.29049L21.756 7.08122L21.8399 7.68804H21.6866L21.2691 7.62509L20.806 7.70449L20.3579 8.35101L19.7171 8.45366L19.6243 9.01398L19.8948 9.0792L19.8165 9.43932L19.1801 9.30889L18.5965 9.43932L18.4727 9.77109L18.5738 10.4675L18.9164 10.6314L19.4911 10.628L19.8792 10.5923L19.9975 10.277L20.6038 9.47222L21.0031 9.55558L21.3962 9.19263L21.4695 9.47619L22.4368 10.1426L22.3185 10.3048L21.8826 10.2809L22.0503 10.5237L22.3185 10.5838L22.6328 10.4499L22.6261 10.0632L22.7655 9.9917L22.6533 9.87034L22.0081 9.50284L21.8382 9.01455H22.3746L22.5462 9.18809L23.0082 9.59472L23.0276 10.0864L23.5062 10.607L23.6845 9.89359L24.016 9.70871L24.0782 10.2923L24.4019 10.6552L25.0477 10.6439C25.1726 10.9723 25.2848 11.3063 25.3831 11.6471L25.3159 11.7107ZM7.36343 7.68804L7.68771 7.53038L7.9809 7.60184L7.87984 8.00393L7.56333 8.10658L7.36343 7.68804ZM9.08422 8.63457V8.89489H8.34349L8.06585 8.81605L8.13526 8.63457L8.49119 8.48429H8.9776V8.63457H9.08422ZM9.42515 8.99753V9.24991L9.23969 9.37184L9.0087 9.41551C9.0087 9.41551 9.0087 9.03723 9.0087 8.99753H9.42515ZM9.21637 8.89489V8.59488L9.47124 8.83193L9.21637 8.89489ZM9.33242 9.50171V9.74727L9.15529 9.92875H8.76161L8.82324 9.65313L9.00926 9.63668L9.04757 9.54197L9.33242 9.50171ZM8.35182 8.99753H8.76105L8.23632 9.74671L8.01976 9.62818L8.06641 9.31286L8.35182 8.99753ZM10.0276 9.41551V9.6605H9.63393L9.52621 9.50171V9.27372H9.55731L10.0276 9.41551ZM9.66392 9.07863L9.77608 8.9584L9.96543 9.07863L9.81384 9.20624L9.66392 9.07863ZM25.5169 12.3492L25.5557 12.3027C25.5718 12.3742 25.5891 12.4457 25.6046 12.5182L25.5169 12.3492Z" fill="white"/>
<path d="M2.09998 9.86467V10.2594C2.23491 9.93726 2.38372 9.62307 2.54308 9.31512L2.09998 9.86467Z" fill="white"/>
</symbol>

<symbol viewBox="0 0 48 39" id="design-icon">
<path d="M19.9946 15.618C17.4879 15.618 16.0733 17.6168 15.8197 19.4739C15.6437 20.7631 15.1752 22.0427 14.7313 23.0315H19.9946C22.2911 23.0315 24.1595 21.3687 24.1595 19.3248C24.1595 17.2808 22.2911 15.618 19.9946 15.618Z" />
<path d="M45.9983 -0.050354H1.38828C0.621578 -0.050354 0 0.502863 0 1.18524V23.0316H11.7053C12.1457 22.1944 12.8609 20.6579 13.0634 19.1757C13.2846 17.5566 14.0437 16.0686 15.201 14.9859C16.4686 13.8 18.1711 13.1469 19.9947 13.1469C20.3277 13.1469 20.6551 13.1692 20.9758 13.2097L29.1013 5.97778C29.8878 5.27761 30.9337 4.89202 32.0462 4.89202C33.1586 4.89202 34.2046 5.27761 34.9912 5.97786C35.7777 6.67787 36.2111 7.60877 36.2111 8.59881C36.2111 9.58893 35.7777 10.5197 34.991 11.2199L26.8655 18.4519C26.9109 18.7372 26.9361 19.0284 26.9361 19.3248C26.9361 20.7146 26.4174 21.9983 25.544 23.0316H47.3865V1.18524C47.3865 0.502781 46.7649 -0.050354 45.9983 -0.050354Z" />
<path d="M25.7831 15.9204L33.0277 9.47246C33.29 9.23902 33.4344 8.92872 33.4344 8.59882C33.4344 8.26883 33.29 7.95861 33.0277 7.72525C32.7654 7.49172 32.4168 7.36322 32.0461 7.36322C31.6753 7.36322 31.3268 7.49172 31.0646 7.72509L23.8199 14.1731C24.5983 14.6325 25.2669 15.2275 25.7831 15.9204Z"/>
<path d="M0 30.0333C0 30.7156 0.621578 31.2688 1.38828 31.2688H45.9983C46.7649 31.2688 47.3865 30.7156 47.3865 30.0333V25.5027H0V30.0333Z" />
<path d="M30.6347 36.2112H29.2464V33.7401H18.1402V36.2112H16.7519C15.9852 36.2112 15.3636 36.7645 15.3636 37.4468C15.3636 38.1292 15.9852 38.6824 16.7519 38.6824H30.6347C31.4013 38.6824 32.0229 38.1292 32.0229 37.4468C32.0229 36.7645 31.4013 36.2112 30.6347 36.2112Z" />
</symbol>

<symbol viewBox="0 0 55 53" id="lamp-icon">
<path d="M33.7696 46.315V47.8635C33.7696 49.0958 32.8303 50.1209 31.608 50.2954L31.2119 51.7022C30.9969 52.4656 30.284 53 29.4578 53H25.5309C24.7047 53 23.9918 52.4656 23.7768 51.7022L23.392 50.2954C22.1584 50.11 21.2191 49.0958 21.2191 47.8526V46.3041C21.2191 45.4753 21.9095 44.81 22.7696 44.81H32.2192C33.0792 44.8209 33.7696 45.4862 33.7696 46.315ZM41.0463 25.4421C41.0463 28.9646 39.5978 32.1598 37.2438 34.5045C35.4558 36.293 34.3015 38.5722 33.9167 41.0041C33.7469 42.051 32.8076 42.8253 31.6986 42.8253H23.2901C22.1924 42.8253 21.2418 42.0619 21.0833 41.015C20.6873 38.5831 19.5216 36.2712 17.7336 34.4936C15.4249 32.1816 13.9877 29.0409 13.9537 25.5839C13.8745 18.321 19.8724 12.443 27.4095 12.3884C34.9352 12.3339 41.0463 18.201 41.0463 25.4421ZM29.0278 17.5358C29.0278 16.7288 28.3488 16.0635 27.5 16.0635C22.1132 16.0635 17.7222 20.2839 17.7222 25.4858C17.7222 26.2928 18.4012 26.958 19.25 26.958C20.0875 26.958 20.7778 26.3037 20.7778 25.4858C20.7778 21.9088 23.7994 19.008 27.5 19.008C28.3488 19.008 29.0278 18.3537 29.0278 17.5358Z"/>
</symbol>

<symbol viewBox="0 0 43 41" id="screwdriver-icon">
<path d="M39.2207 0H25.8252L20.8992 11.2726C20.7036 11.7202 20.2449 12.0117 19.7363 12.0117H0V37.3965C0 39.3835 1.69539 41 3.7793 41H16.8809V30.8344C14.2719 29.3099 12.6816 26.6344 12.6816 23.6847C12.6816 20.1341 15.044 16.9511 18.56 15.7643C18.9456 15.634 19.3734 15.6904 19.7076 15.9157C20.0416 16.1407 20.2402 16.5064 20.2402 16.8965V22.1016H22.7598V16.8965C22.7598 16.5064 22.9585 16.1407 23.2926 15.9156C23.6266 15.6904 24.0546 15.634 24.44 15.7642C27.956 16.9511 30.3184 20.134 30.3184 23.6846C30.3184 26.6343 28.7281 29.3099 26.1191 30.8344V41H39.2207C41.3046 41 43 39.3835 43 37.3965V3.60352C43 1.61654 41.3046 0 39.2207 0ZM9.6582 18.0176H6.29883C5.6031 18.0176 5.03906 17.4798 5.03906 16.8164C5.03906 16.153 5.6031 15.6152 6.29883 15.6152H9.6582C10.3539 15.6152 10.918 16.153 10.918 16.8164C10.918 17.4798 10.3539 18.0176 9.6582 18.0176Z"/>
</symbol>

<symbol  viewBox="0 0 51 32" id="development-icon">
<path d="M7.09172 0H43.0182C46.9281 0 50.1099 2.70784 50.1099 6.03622V25.1652C50.1099 28.4936 46.9281 31.2014 43.0182 31.2014H7.09172C3.18178 31.2014 0 28.4936 0 25.1652V6.03622C0 2.70784 3.18178 0 7.09172 0ZM31.9245 9.60281L39.3852 15.9522L32.7505 21.5986C32.177 22.0867 32.177 22.878 32.7505 23.3652C33.3231 23.8533 34.2529 23.8533 34.8264 23.3652L42.4995 16.8351C43.073 16.347 43.073 15.5566 42.4995 15.0685L34.0013 7.83617C33.4278 7.34808 32.498 7.34808 31.9245 7.83617C31.352 8.32343 31.352 9.11471 31.9245 9.60281ZM19.8149 6.66341L27.5781 25.3701C27.8482 26.0215 28.6869 26.3621 29.4513 26.1322C30.2157 25.9023 30.617 25.1885 30.3468 24.538L22.5837 5.83132C22.3136 5.1808 21.4758 4.8393 20.7105 5.06919C19.9461 5.29908 19.5448 6.01289 19.8149 6.66341ZM7.61044 16.1329L16.1086 23.3652C16.6821 23.8533 17.6119 23.8533 18.1854 23.3652C18.7579 22.878 18.7579 22.0867 18.1854 21.5986L10.7247 15.2492L17.3594 9.60281C17.9329 9.11471 17.9329 8.32343 17.3594 7.83617C16.7868 7.34808 15.857 7.34808 15.2835 7.83617L7.61044 14.3663C7.03692 14.8544 7.03692 15.6449 7.61044 16.1329Z"/>
</symbol>

<symbol  viewBox="0 0 44 35" id="testing-icon">
<path d="M40.1328 0H3.86719C1.73473 0 0 1.65588 0 3.69141V28.4648C0 30.5004 1.73473 32.1562 3.86719 32.1562H15.4688V34.6172H28.4453V32.1562H40.1328C42.2653 32.1562 44 30.5004 44 28.4648V3.69141C44 1.65588 42.2653 0 40.1328 0ZM15.0911 21.8699L9.93489 26.7918C9.43138 27.2724 8.61558 27.2724 8.11207 26.7918L5.53395 24.3309C5.03035 23.8503 5.03035 23.0716 5.53395 22.591C6.03745 22.1104 6.85326 22.1104 7.35677 22.591L9.02344 24.1819L13.2683 20.13C13.7718 19.6494 14.5876 19.6494 15.0911 20.13C15.5946 20.6106 15.5946 21.3893 15.0911 21.8699ZM15.0911 14.4871L9.93489 19.409C9.43138 19.8896 8.61558 19.8896 8.11207 19.409L5.53395 16.9481C5.03035 16.4674 5.03035 15.6888 5.53395 15.2082C6.03745 14.7276 6.85326 14.7276 7.35677 15.2082L9.02344 16.7991L13.2683 12.7472C13.7718 12.2665 14.5876 12.2665 15.0911 12.7472C15.5946 13.2278 15.5946 14.0065 15.0911 14.4871ZM15.0911 7.10432L9.93489 12.0262C9.43138 12.5068 8.61558 12.5068 8.11207 12.0262L5.53395 9.56525C5.03035 9.08463 5.03035 8.30599 5.53395 7.82537C6.03745 7.34475 6.85326 7.34475 7.35677 7.82537L9.02344 9.41628L13.2683 5.36435C13.7718 4.88373 14.5876 4.88373 15.0911 5.36435C15.5946 5.84497 15.5946 6.62369 15.0911 7.10432ZM37.5547 24.6914H19.3359C18.6234 24.6914 18.0469 24.1411 18.0469 23.4609C18.0469 22.7808 18.6234 22.2305 19.3359 22.2305H37.5547C38.2672 22.2305 38.8438 22.7808 38.8438 23.4609C38.8438 24.1411 38.2672 24.6914 37.5547 24.6914ZM37.5547 17.3086H19.3359C18.6234 17.3086 18.0469 16.7582 18.0469 16.0781C18.0469 15.398 18.6234 14.8477 19.3359 14.8477H37.5547C38.2672 14.8477 38.8438 15.398 38.8438 16.0781C38.8438 16.7582 38.2672 17.3086 37.5547 17.3086ZM37.5547 9.92578H19.3359C18.6234 9.92578 18.0469 9.37543 18.0469 8.69531C18.0469 8.01519 18.6234 7.46484 19.3359 7.46484H37.5547C38.2672 7.46484 38.8438 8.01519 38.8438 8.69531C38.8438 9.37543 38.2672 9.92578 37.5547 9.92578Z"/>
<symbol>

<symbol width="42" height="36" viewBox="0 0 42 36" id="integration-icon">
<path d="M16.0781 12.7266H27.1523V1.05469C27.1523 0.4725 26.6011 0 25.9219 0H1.23047C0.55125 0 0 0.4725 0 1.05469V22.2188C0 22.8009 0.55125 23.2734 1.23047 23.2734H14.8477V13.7812C14.8477 13.1991 15.3989 12.7266 16.0781 12.7266Z"/>
<path d="M40.7695 12.7266H27.1523V22.2188C27.1523 22.8009 26.6011 23.2734 25.9219 23.2734H14.8477V34.9453C14.8477 35.5275 15.3989 36 16.0781 36H40.7695C41.4487 36 42 35.5275 42 34.9453V13.7813C42 13.1991 41.4487 12.7266 40.7695 12.7266Z"/>
</symbol>

<symbol width="36" height="23" viewBox="0 0 36 23" id="button-icon">
<path d="M35.3842 11.5914L24.2588 21.9984C23.969 22.2694 23.4997 22.2694 23.21 21.9984C22.9202 21.7273 22.9202 21.2883 23.21 21.0173L33.0694 11.7946L0.741723 11.7946C0.331749 11.7946 1.00162e-06 11.4843 1.03746e-06 11.1008C1.07331e-06 10.7173 0.331749 10.407 0.741723 10.407L33.0694 10.407L23.21 1.18432C22.9202 0.913286 22.9202 0.474241 23.21 0.203268C23.3548 0.0677834 23.5446 5.74011e-06 23.7344 5.75563e-06C23.9242 5.77115e-06 24.1139 0.0677834 24.2588 0.203268L35.3843 10.6103C35.674 10.8813 35.674 11.3203 35.3842 11.5914Z" />
<symbol>

<symbol width="25" height="24" viewBox="0 0 25 24" id="edin-icon">
<path d="M21.3379 0H3.66211C1.64299 0 0 1.55171 0 3.45866V20.1525C0 22.0594 1.64299 23.6111 3.66211 23.6111H21.3379C23.357 23.6111 25 22.0594 25 20.1525V3.45866C25 1.55171 23.357 0 21.3379 0ZM8.83789 18.7229H5.9082V9.03863H8.83789V18.7229ZM8.83789 7.65516H5.9082V4.88824H8.83789V7.65516ZM19.0918 18.7229H16.1621V13.189C16.1621 12.4263 15.5048 11.8056 14.6973 11.8056C13.8897 11.8056 13.2324 12.4263 13.2324 13.189V18.7229H10.3027V9.03863H13.2324V9.56013C13.9999 9.33478 14.4985 9.03863 15.4297 9.03863C17.4166 9.04061 19.0918 10.724 19.0918 12.7135V18.7229Z"/>
<symbol>

<symbol width="25" height="24" viewBox="0 0 25 24" id="facebook-icon">
<path d="M21.631 0H3.3688C1.5083 0 0 1.42445 0 3.18164V20.4293C0 22.1865 1.50824 23.611 3.3688 23.611H12.3756L12.391 15.1737H10.07C9.76839 15.1737 9.52358 14.9434 9.52242 14.6585L9.51129 11.9388C9.51013 11.6524 9.75567 11.4196 10.0589 11.4196H12.3757V8.7917C12.3757 5.74203 14.3478 4.08147 17.2283 4.08147H19.592C19.8944 4.08147 20.1397 4.31302 20.1397 4.5987V6.89195C20.1397 7.17751 19.8946 7.40901 19.5923 7.40919L18.1417 7.40982C16.5752 7.40982 16.2719 8.11286 16.2719 9.14461V11.4197H19.7141C20.0421 11.4197 20.2965 11.6902 20.2579 11.9978L19.9166 14.7175C19.8839 14.9777 19.6502 15.1738 19.3728 15.1738H16.2872L16.2719 23.6111H21.6311C23.4916 23.6111 24.9998 22.1867 24.9998 20.4295V3.18164C24.9998 1.42445 23.4915 0 21.631 0Z"/>
</symbol >
<symbol width="25" height="24" viewBox="0 0 25 24" id="instagram-icon">
<path d="M21.3379 0H3.66211C1.64299 0 0 1.55171 0 3.45866V20.1525C0 22.0594 1.64299 23.6111 3.66211 23.6111H21.3379C23.357 23.6111 25 22.0594 25 20.1525V3.45866C25 1.55171 23.357 0 21.3379 0ZM12.5488 17.985C8.91399 17.985 5.95703 15.1923 5.95703 11.7594C5.95703 8.32654 8.91399 5.53385 12.5488 5.53385C16.1837 5.53385 19.1406 8.32654 19.1406 11.7594C19.1406 15.1923 16.1837 17.985 12.5488 17.985ZM19.873 6.91732C18.6615 6.91732 17.6758 5.98636 17.6758 4.84212C17.6758 3.69788 18.6615 2.76693 19.873 2.76693C21.0846 2.76693 22.0703 3.69788 22.0703 4.84212C22.0703 5.98636 21.0846 6.91732 19.873 6.91732Z"/>
<path d="M19.873 4.15039C19.4689 4.15039 19.1406 4.46041 19.1406 4.84212C19.1406 5.22384 19.4689 5.53385 19.873 5.53385C20.2772 5.53385 20.6055 5.22384 20.6055 4.84212C20.6055 4.46041 20.2772 4.15039 19.873 4.15039Z"/>
<path d="M12.5488 6.91748C9.72214 6.91748 7.42188 9.08995 7.42188 11.7596C7.42188 14.4293 9.72214 16.6017 12.5488 16.6017C15.3755 16.6017 17.6758 14.4293 17.6758 11.7596C17.6758 9.08995 15.3755 6.91748 12.5488 6.91748Z"/>

</symbol>

<symbol width="33" height="18" viewBox="0 0 33 18" id="burger">
<line x1="0" y1="2" x2="33" y2="2"  stroke-width="3"/>
<line x1="0" y1="9" x2="33" y2="9"  stroke-width="3"/>
<line x1="0" y1="16" x2="33" y2="16"  stroke-width="3"/>
</symbol>
<symbol width="25" height="22" viewBox="0 0 25 22" id="cross">
<line x1="0" y1="0" x2="25" y2="22" stroke-width="3"/>
<line x1="0" y1="22" x2="25" y2="0" stroke-width="3"/>

</symbol>

</svg>